<svg width="557" height="147" viewBox="0 0 557 147" fill="none" xmlns="http://www.w3.org/2000/svg">
<path d="M173.96 93.92V32.48L188.04 18.4H228.488L242.568 32.48V93.92L228.488 108H188.04L173.96 93.92ZM224.136 99.296L232.84 90.72V35.68L224.136 27.104H192.392L183.688 35.68V90.72L192.392 99.296H224.136ZM254.06 93.92V32.48L268.14 18.4H306.54L320.108 31.968V40.16H310.38V35.168L302.188 27.104H272.492L263.788 35.68V90.72L272.492 99.296H302.188L310.38 91.232V86.24H320.108V94.432L306.54 108H268.14L254.06 93.92ZM328.41 93.92V32.48L342.49 18.4H382.938L397.018 32.48V93.92L382.938 108H342.49L328.41 93.92ZM378.586 99.296L387.29 90.72V35.68L378.586 27.104H346.842L338.138 35.68V90.72L346.842 99.296H378.586ZM473.278 80.608V108H463.55V83.296L451.262 70.368H419.518V108H409.79V18.4H460.99L472.766 30.176V58.464L462.398 68.832L473.278 80.608ZM419.518 61.92H456.766L463.166 55.648V33.12L456.766 26.848H419.518V61.92ZM486.765 18.4H537.965L549.741 30.176V58.976L537.837 70.88H496.493V108H486.765V18.4ZM533.741 62.432L540.141 56.16V33.12L533.741 26.848H496.493V62.432H533.741Z" fill="white"/>
<path d="M410.56 136.792V135.256H412.36V136.192L413.512 137.368H419.272L420.472 136.144V132.376L419.272 131.2H412.816L410.608 128.992V124.408L412.816 122.2H419.872L422.08 124.408V125.968H420.304V125.008L419.104 123.832H413.608L412.408 125.008V128.392L413.608 129.568H420.064L422.272 131.776V136.744L420.016 139H412.768L410.56 136.792ZM427.799 136.36V124.84L430.439 122.2H438.023L440.663 124.84V136.36L438.023 139H430.439L427.799 136.36ZM437.207 137.368L438.839 135.76V125.44L437.207 123.832H431.255L429.623 125.44V135.76L431.255 137.368H437.207ZM446.657 122.2H457.265V123.832H448.481V129.88H456.114V131.512H448.481V139H446.657V122.2ZM466.188 123.808H461.1V122.2H473.1V123.808H468.012V139H466.188V123.808ZM477.169 122.2H479.017L481.705 136.408H481.753L485.785 122.2H487.561L491.449 136.408H491.497L494.113 122.2H495.961L492.577 139H490.609L486.697 124.792H486.649L482.521 139H480.553L477.169 122.2ZM504.706 122.2H506.674L512.65 139H510.754L509.194 134.464H502.186L500.626 139H498.73L504.706 122.2ZM508.666 132.88L505.714 124.312H505.666L502.738 132.88H508.666ZM529.357 133.864V139H527.533V134.368L525.229 131.944H519.277V139H517.453V122.2H527.053L529.261 124.408V129.712L527.317 131.656L529.357 133.864ZM519.277 130.36H526.261L527.461 129.184V124.96L526.261 123.784H519.277V130.36ZM535.486 122.2H546.334V123.832H537.31V129.736H545.638V131.368H537.31V137.368H546.334V139H535.486V122.2Z" fill="white"/>
<path d="M19.9087 54.4133C19.9087 54.4133 39.8892 54.4133 44.4562 54.4133C49.0231 54.4133 49.594 68.7581 55.8736 68.7581C62.1532 68.7581 87.2309 68.7581 91.2676 68.7581C95.2637 68.7581 95.8346 54.4133 100.402 54.4133C104.398 54.4133 126.091 54.4133 126.091 54.4133" stroke="#D9D9D9" stroke-width="3"/>
<path d="M19.9087 54.4133C19.9087 54.4133 39.8892 54.4133 44.4562 54.4133C49.0231 54.4133 49.594 68.7581 55.8736 68.7581C62.1532 68.7581 87.2309 68.7581 91.2676 68.7581C95.2637 68.7581 95.8346 54.4133 100.402 54.4133C104.398 54.4133 126.091 54.4133 126.091 54.4133" stroke="#D9D9D9" stroke-width="3"/>
<path d="M19.9087 54.4133C19.9087 54.4133 39.8892 54.4133 44.4562 54.4133C49.0231 54.4133 49.594 68.7581 55.8736 68.7581C62.1532 68.7581 87.2309 68.7581 91.2676 68.7581C95.2637 68.7581 95.8346 54.4133 100.402 54.4133C104.398 54.4133 126.091 54.4133 126.091 54.4133" stroke="#D9D9D9" stroke-width="3"/>
<path d="M42.5835 29.0349C42.5835 29.0349 45.759 29.0349 50.3259 29.0349C54.8929 29.0349 60.2805 56.621 66.9169 56.621C73.5533 56.621 72.4472 56.621 79.6366 56.621C85.1669 56.621 91.6606 29.0349 96.2276 29.0349C100.224 29.0349 102.311 29.0349 102.311 29.0349" stroke="#D9D9D9" stroke-width="3"/>
<path d="M42.5835 29.0349C42.5835 29.0349 45.759 29.0349 50.3259 29.0349C54.8929 29.0349 60.2805 56.621 66.9169 56.621C73.5533 56.621 72.4472 56.621 79.6366 56.621C85.1669 56.621 91.6606 29.0349 96.2276 29.0349C100.224 29.0349 102.311 29.0349 102.311 29.0349" stroke="#D9D9D9" stroke-width="3"/>
<path d="M42.5835 29.0349C42.5835 29.0349 45.759 29.0349 50.3259 29.0349C54.8929 29.0349 60.2805 56.621 66.9169 56.621C73.5533 56.621 72.4472 56.621 79.6366 56.621C85.1669 56.621 91.6606 29.0349 96.2276 29.0349C100.224 29.0349 102.311 29.0349 102.311 29.0349" stroke="#D9D9D9" stroke-width="3"/>
<ellipse cx="33.1827" cy="29.0344" rx="11.0606" ry="11.0344" fill="#D9D9D9"/>
<ellipse cx="112.818" cy="29.0344" rx="11.0606" ry="11.0344" fill="#D9D9D9"/>
<ellipse cx="22.1217" cy="82" rx="11.0606" ry="11.0344" fill="#D9D9D9"/>
<path d="M28.7573 81.9998H115.583" stroke="#D9D9D9" stroke-width="3"/>
<path d="M28.7573 81.9998H115.583" stroke="#D9D9D9" stroke-width="3"/>
<path d="M28.7573 81.9998H115.583" stroke="#D9D9D9" stroke-width="3"/>
<ellipse cx="11.0606" cy="54.4136" rx="11.0606" ry="11.0344" fill="#D9D9D9"/>
<ellipse cx="134.939" cy="54.4136" rx="11.0606" ry="11.0344" fill="#D9D9D9"/>
<path d="M19.9087 109.586C19.9087 109.586 39.8892 109.586 44.4562 109.586C49.0231 109.586 49.594 95.2412 55.8736 95.2412C62.1532 95.2412 87.2309 95.2412 91.2676 95.2412C95.2637 95.2412 95.8346 109.586 100.402 109.586C104.398 109.586 126.091 109.586 126.091 109.586" stroke="#D9D9D9" stroke-width="3"/>
<path d="M19.9087 109.586C19.9087 109.586 39.8892 109.586 44.4562 109.586C49.0231 109.586 49.594 95.2412 55.8736 95.2412C62.1532 95.2412 87.2309 95.2412 91.2676 95.2412C95.2637 95.2412 95.8346 109.586 100.402 109.586C104.398 109.586 126.091 109.586 126.091 109.586" stroke="#D9D9D9" stroke-width="3"/>
<path d="M19.9087 109.586C19.9087 109.586 39.8892 109.586 44.4562 109.586C49.0231 109.586 49.594 95.2412 55.8736 95.2412C62.1532 95.2412 87.2309 95.2412 91.2676 95.2412C95.2637 95.2412 95.8346 109.586 100.402 109.586C104.398 109.586 126.091 109.586 126.091 109.586" stroke="#D9D9D9" stroke-width="3"/>
<path d="M42.5835 134.965C42.5835 134.965 45.759 134.965 50.3259 134.965C54.8929 134.965 60.2805 107.379 66.9169 107.379C73.5533 107.379 72.4472 107.379 79.6366 107.379C85.1669 107.379 91.6606 134.965 96.2276 134.965C100.224 134.965 102.311 134.965 102.311 134.965" stroke="#D9D9D9" stroke-width="3"/>
<path d="M42.5835 134.965C42.5835 134.965 45.759 134.965 50.3259 134.965C54.8929 134.965 60.2805 107.379 66.9169 107.379C73.5533 107.379 72.4472 107.379 79.6366 107.379C85.1669 107.379 91.6606 134.965 96.2276 134.965C100.224 134.965 102.311 134.965 102.311 134.965" stroke="#D9D9D9" stroke-width="3"/>
<path d="M42.5835 134.965C42.5835 134.965 45.759 134.965 50.3259 134.965C54.8929 134.965 60.2805 107.379 66.9169 107.379C73.5533 107.379 72.4472 107.379 79.6366 107.379C85.1669 107.379 91.6606 134.965 96.2276 134.965C100.224 134.965 102.311 134.965 102.311 134.965" stroke="#D9D9D9" stroke-width="3"/>
<ellipse cx="11.0606" cy="11.0344" rx="11.0606" ry="11.0344" transform="matrix(1 0 0 -1 22.1221 146)" fill="#D9D9D9"/>
<ellipse cx="11.0606" cy="11.0344" rx="11.0606" ry="11.0344" transform="matrix(1 0 0 -1 101.757 146)" fill="#D9D9D9"/>
<ellipse cx="11.0606" cy="11.0344" rx="11.0606" ry="11.0344" transform="matrix(1 0 0 -1 0 120.62)" fill="#D9D9D9"/>
<ellipse cx="11.0606" cy="11.0344" rx="11.0606" ry="11.0344" transform="matrix(1 0 0 -1 123.878 120.62)" fill="#D9D9D9"/>
<ellipse cx="123.879" cy="82" rx="11.0606" ry="11.0344" fill="#D9D9D9"/>
<rect x="174" y="132" width="223" height="1" fill="#D9D9D9"/>
</svg>
